{
    "asset" : {
        "generator" : "Khronos glTF Blender I/O v1.6.16",
        "version" : "2.0"
    },
    "scene" : 0,
    "scenes" : [
        {
            "name" : "Scene",
            "nodes" : [
                0,
                1,
                2,
                3
            ]
        }
    ],
    "nodes" : [
        {
            "mesh" : 0,
            "name" : "Hemisphere",
            "scale" : [
                1.0075010061264038,
                1,
                1
            ],
            "translation" : [
                0,
                1.2999999523162842,
                0
            ]
        },
        {
            "mesh" : 1,
            "name" : "Ring1",
            "rotation" : [
                0.7071068286895752,
                0,
                0,
                0.7071068286895752
            ],
            "translation" : [
                0,
                1.2999999523162842,
                0
            ]
        },
        {
            "mesh" : 2,
            "name" : "Ring2",
            "rotation" : [
                0.7071068286895752,
                0,
                0,
                0.7071068286895752
            ],
            "translation" : [
                0,
                1.2999999523162842,
                -0.005637002177536488
            ]
        },
        {
            "mesh" : 3,
            "name" : "Plane.001",
            "rotation" : [
                0.7071068286895752,
                0,
                0,
                0.7071068286895752
            ],
            "translation" : [
                0,
                0,
                -2
            ]
        }
    ],
    "materials" : [
        {
            "doubleSided" : true,
            "name" : "BackgroundMaterial",
            "pbrMetallicRoughness" : {
                "baseColorFactor" : [
                    0.014443843625485897,
                    0.012983030639588833,
                    0.022173883393406868,
                    1
                ],
                "metallicFactor" : 0,
                "roughnessFactor" : 0.5
            }
        }
    ],
    "meshes" : [
        {
            "name" : "Sphere.001",
            "primitives" : [
                {
                    "attributes" : {
                        "POSITION" : 0,
                        "NORMAL" : 1,
                        "TEXCOORD_0" : 2
                    },
                    "indices" : 3
                }
            ]
        },
        {
            "name" : "BezierCurve",
            "primitives" : [
                {
                    "attributes" : {
                        "POSITION" : 4,
                        "NORMAL" : 5,
                        "TEXCOORD_0" : 6
                    },
                    "indices" : 7
                }
            ]
        },
        {
            "name" : "BezierCurve.005",
            "primitives" : [
                {
                    "attributes" : {
                        "POSITION" : 8,
                        "NORMAL" : 9,
                        "TEXCOORD_0" : 10
                    },
                    "indices" : 11
                }
            ]
        },
        {
            "name" : "Plane.001",
            "primitives" : [
                {
                    "attributes" : {
                        "POSITION" : 12,
                        "NORMAL" : 13,
                        "TEXCOORD_0" : 14
                    },
                    "indices" : 15,
                    "material" : 0
                }
            ]
        }
    ],
    "accessors" : [
        {
            "bufferView" : 0,
            "componentType" : 5126,
            "count" : 2957,
            "max" : [
                1.4133902788162231,
                -0.2923352122306824,
                0.995896577835083
            ],
            "min" : [
                -1.4133902788162231,
                -2.191258430480957,
                -0.9958962798118591
            ],
            "type" : "VEC3"
        },
        {
            "bufferView" : 1,
            "componentType" : 5126,
            "count" : 2957,
            "type" : "VEC3"
        },
        {
            "bufferView" : 2,
            "componentType" : 5126,
            "count" : 2957,
            "type" : "VEC2"
        },
        {
            "bufferView" : 3,
            "componentType" : 5123,
            "count" : 14040,
            "type" : "SCALAR"
        },
        {
            "bufferView" : 4,
            "componentType" : 5126,
            "count" : 282,
            "max" : [
                1.6879483461380005,
                -5.6504501117160544e-05,
                2.2627134323120117
            ],
            "min" : [
                -1.6879483461380005,
                -5.678601883118972e-05,
                0.17698520421981812
            ],
            "type" : "VEC3"
        },
        {
            "bufferView" : 5,
            "componentType" : 5126,
            "count" : 282,
            "type" : "VEC3"
        },
        {
            "bufferView" : 6,
            "componentType" : 5126,
            "count" : 282,
            "type" : "VEC2"
        },
        {
            "bufferView" : 7,
            "componentType" : 5123,
            "count" : 834,
            "type" : "SCALAR"
        },
        {
            "bufferView" : 8,
            "componentType" : 5126,
            "count" : 384,
            "max" : [
                2.011641263961792,
                3.8815767267053047e-10,
                2.38974666595459
            ],
            "min" : [
                -2.011641263961792,
                -4.700918543321109e-10,
                0.07995478063821793
            ],
            "type" : "VEC3"
        },
        {
            "bufferView" : 9,
            "componentType" : 5126,
            "count" : 384,
            "type" : "VEC3"
        },
        {
            "bufferView" : 10,
            "componentType" : 5126,
            "count" : 384,
            "type" : "VEC2"
        },
        {
            "bufferView" : 11,
            "componentType" : 5123,
            "count" : 1140,
            "type" : "SCALAR"
        },
        {
            "bufferView" : 12,
            "componentType" : 5126,
            "count" : 4,
            "max" : [
                10,
                0,
                10
            ],
            "min" : [
                -10,
                0,
                -10
            ],
            "type" : "VEC3"
        },
        {
            "bufferView" : 13,
            "componentType" : 5126,
            "count" : 4,
            "type" : "VEC3"
        },
        {
            "bufferView" : 14,
            "componentType" : 5126,
            "count" : 4,
            "type" : "VEC2"
        },
        {
            "bufferView" : 15,
            "componentType" : 5123,
            "count" : 6,
            "type" : "SCALAR"
        }
    ],
    "bufferViews" : [
        {
            "buffer" : 0,
            "byteLength" : 35484,
            "byteOffset" : 0
        },
        {
            "buffer" : 0,
            "byteLength" : 35484,
            "byteOffset" : 35484
        },
        {
            "buffer" : 0,
            "byteLength" : 23656,
            "byteOffset" : 70968
        },
        {
            "buffer" : 0,
            "byteLength" : 28080,
            "byteOffset" : 94624
        },
        {
            "buffer" : 0,
            "byteLength" : 3384,
            "byteOffset" : 122704
        },
        {
            "buffer" : 0,
            "byteLength" : 3384,
            "byteOffset" : 126088
        },
        {
            "buffer" : 0,
            "byteLength" : 2256,
            "byteOffset" : 129472
        },
        {
            "buffer" : 0,
            "byteLength" : 1668,
            "byteOffset" : 131728
        },
        {
            "buffer" : 0,
            "byteLength" : 4608,
            "byteOffset" : 133396
        },
        {
            "buffer" : 0,
            "byteLength" : 4608,
            "byteOffset" : 138004
        },
        {
            "buffer" : 0,
            "byteLength" : 3072,
            "byteOffset" : 142612
        },
        {
            "buffer" : 0,
            "byteLength" : 2280,
            "byteOffset" : 145684
        },
        {
            "buffer" : 0,
            "byteLength" : 48,
            "byteOffset" : 147964
        },
        {
            "buffer" : 0,
            "byteLength" : 48,
            "byteOffset" : 148012
        },
        {
            "buffer" : 0,
            "byteLength" : 32,
            "byteOffset" : 148060
        },
        {
            "buffer" : 0,
            "byteLength" : 12,
            "byteOffset" : 148092
        }
    ],
    "buffers" : [
        {
            "byteLength" : 148104,
            "uri" : "data:application/octet-stream;base64,"
        }
    ]
}
