{
    "asset" : {
        "generator" : "Khronos glTF Blender I/O v1.6.16",
        "version" : "2.0"
    },
    "scene" : 0,
    "scenes" : [
        {
            "name" : "Scene",
            "nodes" : [
                0,
                1,
                2,
                3,
                4,
                5,
                6
            ]
        }
    ],
    "nodes" : [
        {
            "mesh" : 0,
            "name" : "Hemisphere1",
            "translation" : [
                0,
                3.765432834625244,
                0
            ]
        },
        {
            "mesh" : 1,
            "name" : "Ring1",
            "translation" : [
                0,
                3.765432834625244,
                0
            ]
        },
        {
            "mesh" : 2,
            "name" : "Ring2",
            "translation" : [
                0,
                3.765432834625244,
                0
            ]
        },
        {
            "mesh" : 3,
            "name" : "Plane.003",
            "rotation" : [
                0.7071068286895752,
                0,
                0,
                0.7071068286895752
            ],
            "translation" : [
                0,
                5,
                0
            ]
        },
        {
            "mesh" : 4,
            "name" : "Hemisphere2",
            "translation" : [
                0,
                3.765432834625244,
                0
            ]
        },
        {
            "mesh" : 5,
            "name" : "Ring3",
            "translation" : [
                0,
                3.765432834625244,
                0
            ]
        },
        {
            "mesh" : 6,
            "name" : "Ring4",
            "translation" : [
                0,
                3.765432834625244,
                0
            ]
        }
    ],
    "materials" : [
        {
            "doubleSided" : true,
            "name" : "BackgroundMaterial",
            "pbrMetallicRoughness" : {
                "baseColorFactor" : [
                    0.014443843625485897,
                    0.012983030639588833,
                    0.022173883393406868,
                    1
                ],
                "metallicFactor" : 0,
                "roughnessFactor" : 0.5
            }
        }
    ],
    "meshes" : [
        {
            "name" : "Sphere.003",
            "primitives" : [
                {
                    "attributes" : {
                        "POSITION" : 0,
                        "NORMAL" : 1,
                        "TEXCOORD_0" : 2
                    },
                    "indices" : 3
                }
            ]
        },
        {
            "name" : "BezierCurve.002",
            "primitives" : [
                {
                    "attributes" : {
                        "POSITION" : 4,
                        "NORMAL" : 5,
                        "TEXCOORD_0" : 6
                    },
                    "indices" : 7
                }
            ]
        },
        {
            "name" : "BezierCurve.003",
            "primitives" : [
                {
                    "attributes" : {
                        "POSITION" : 8,
                        "NORMAL" : 9,
                        "TEXCOORD_0" : 10
                    },
                    "indices" : 11
                }
            ]
        },
        {
            "name" : "Plane.003",
            "primitives" : [
                {
                    "attributes" : {
                        "POSITION" : 12,
                        "NORMAL" : 13,
                        "TEXCOORD_0" : 14
                    },
                    "indices" : 15,
                    "material" : 0
                }
            ]
        },
        {
            "name" : "Sphere.005",
            "primitives" : [
                {
                    "attributes" : {
                        "POSITION" : 16,
                        "NORMAL" : 17,
                        "TEXCOORD_0" : 18
                    },
                    "indices" : 3
                }
            ]
        },
        {
            "name" : "BezierCurve.006",
            "primitives" : [
                {
                    "attributes" : {
                        "POSITION" : 19,
                        "NORMAL" : 20,
                        "TEXCOORD_0" : 21
                    },
                    "indices" : 22
                }
            ]
        },
        {
            "name" : "BezierCurve.007",
            "primitives" : [
                {
                    "attributes" : {
                        "POSITION" : 23,
                        "NORMAL" : 24,
                        "TEXCOORD_0" : 25
                    },
                    "indices" : 11
                }
            ]
        }
    ],
    "accessors" : [
        {
            "bufferView" : 0,
            "componentType" : 5126,
            "count" : 2957,
            "max" : [
                1.3593342304229736,
                -3.992335319519043,
                0.995896577835083
            ],
            "min" : [
                -1.3593342304229736,
                -5.891258239746094,
                -0.9958962798118591
            ],
            "type" : "VEC3"
        },
        {
            "bufferView" : 1,
            "componentType" : 5126,
            "count" : 2957,
            "type" : "VEC3"
        },
        {
            "bufferView" : 2,
            "componentType" : 5126,
            "count" : 2957,
            "type" : "VEC2"
        },
        {
            "bufferView" : 3,
            "componentType" : 5123,
            "count" : 14040,
            "type" : "SCALAR"
        },
        {
            "bufferView" : 4,
            "componentType" : 5126,
            "count" : 282,
            "max" : [
                1.6232903003692627,
                -3.8772449493408203,
                -5.651909305015579e-05
            ],
            "min" : [
                -1.6232903003692627,
                -5.962713241577148,
                -5.6884924561018124e-05
            ],
            "type" : "VEC3"
        },
        {
            "bufferView" : 5,
            "componentType" : 5126,
            "count" : 282,
            "type" : "VEC3"
        },
        {
            "bufferView" : 6,
            "componentType" : 5126,
            "count" : 282,
            "type" : "VEC2"
        },
        {
            "bufferView" : 7,
            "componentType" : 5123,
            "count" : 834,
            "type" : "SCALAR"
        },
        {
            "bufferView" : 8,
            "componentType" : 5126,
            "count" : 384,
            "max" : [
                1.9469832181930542,
                -3.7799549102783203,
                -0.005637005437165499
            ],
            "min" : [
                -1.9469832181930542,
                -6.089746475219727,
                -0.0056371064856648445
            ],
            "type" : "VEC3"
        },
        {
            "bufferView" : 9,
            "componentType" : 5126,
            "count" : 384,
            "type" : "VEC3"
        },
        {
            "bufferView" : 10,
            "componentType" : 5126,
            "count" : 384,
            "type" : "VEC2"
        },
        {
            "bufferView" : 11,
            "componentType" : 5123,
            "count" : 1140,
            "type" : "SCALAR"
        },
        {
            "bufferView" : 12,
            "componentType" : 5126,
            "count" : 4,
            "max" : [
                10,
                -1.999999761581421,
                15
            ],
            "min" : [
                -10,
                -1.999999761581421,
                -5
            ],
            "type" : "VEC3"
        },
        {
            "bufferView" : 13,
            "componentType" : 5126,
            "count" : 4,
            "type" : "VEC3"
        },
        {
            "bufferView" : 14,
            "componentType" : 5126,
            "count" : 4,
            "type" : "VEC2"
        },
        {
            "bufferView" : 15,
            "componentType" : 5123,
            "count" : 6,
            "type" : "SCALAR"
        },
        {
            "bufferView" : 16,
            "componentType" : 5126,
            "count" : 2957,
            "max" : [
                0.9565077424049377,
                -1.8049014806747437,
                0.8408471345901489
            ],
            "min" : [
                -0.956507682800293,
                -3.409374237060547,
                -0.8408470153808594
            ],
            "type" : "VEC3"
        },
        {
            "bufferView" : 17,
            "componentType" : 5126,
            "count" : 2957,
            "type" : "VEC3"
        },
        {
            "bufferView" : 18,
            "componentType" : 5126,
            "count" : 2957,
            "type" : "VEC2"
        },
        {
            "bufferView" : 19,
            "componentType" : 5126,
            "count" : 282,
            "max" : [
                1.1798040866851807,
                -1.711991786956787,
                -4.772029569721781e-05
            ],
            "min" : [
                -1.1798040866851807,
                -3.473973274230957,
                -4.802953844773583e-05
            ],
            "type" : "VEC3"
        },
        {
            "bufferView" : 20,
            "componentType" : 5126,
            "count" : 282,
            "type" : "VEC3"
        },
        {
            "bufferView" : 21,
            "componentType" : 5126,
            "count" : 282,
            "type" : "VEC2"
        },
        {
            "bufferView" : 22,
            "componentType" : 5123,
            "count" : 834,
            "type" : "SCALAR"
        },
        {
            "bufferView" : 23,
            "componentType" : 5126,
            "count" : 384,
            "max" : [
                1.4531044960021973,
                -1.633278727531433,
                -0.00475939130410552
            ],
            "min" : [
                -1.4531044960021973,
                -3.583230495452881,
                -0.0047594765201210976
            ],
            "type" : "VEC3"
        },
        {
            "bufferView" : 24,
            "componentType" : 5126,
            "count" : 384,
            "type" : "VEC3"
        },
        {
            "bufferView" : 25,
            "componentType" : 5126,
            "count" : 384,
            "type" : "VEC2"
        }
    ],
    "bufferViews" : [
        {
            "buffer" : 0,
            "byteLength" : 35484,
            "byteOffset" : 0
        },
        {
            "buffer" : 0,
            "byteLength" : 35484,
            "byteOffset" : 35484
        },
        {
            "buffer" : 0,
            "byteLength" : 23656,
            "byteOffset" : 70968
        },
        {
            "buffer" : 0,
            "byteLength" : 28080,
            "byteOffset" : 94624
        },
        {
            "buffer" : 0,
            "byteLength" : 3384,
            "byteOffset" : 122704
        },
        {
            "buffer" : 0,
            "byteLength" : 3384,
            "byteOffset" : 126088
        },
        {
            "buffer" : 0,
            "byteLength" : 2256,
            "byteOffset" : 129472
        },
        {
            "buffer" : 0,
            "byteLength" : 1668,
            "byteOffset" : 131728
        },
        {
            "buffer" : 0,
            "byteLength" : 4608,
            "byteOffset" : 133396
        },
        {
            "buffer" : 0,
            "byteLength" : 4608,
            "byteOffset" : 138004
        },
        {
            "buffer" : 0,
            "byteLength" : 3072,
            "byteOffset" : 142612
        },
        {
            "buffer" : 0,
            "byteLength" : 2280,
            "byteOffset" : 145684
        },
        {
            "buffer" : 0,
            "byteLength" : 48,
            "byteOffset" : 147964
        },
        {
            "buffer" : 0,
            "byteLength" : 48,
            "byteOffset" : 148012
        },
        {
            "buffer" : 0,
            "byteLength" : 32,
            "byteOffset" : 148060
        },
        {
            "buffer" : 0,
            "byteLength" : 12,
            "byteOffset" : 148092
        },
        {
            "buffer" : 0,
            "byteLength" : 35484,
            "byteOffset" : 148104
        },
        {
            "buffer" : 0,
            "byteLength" : 35484,
            "byteOffset" : 183588
        },
        {
            "buffer" : 0,
            "byteLength" : 23656,
            "byteOffset" : 219072
        },
        {
            "buffer" : 0,
            "byteLength" : 3384,
            "byteOffset" : 242728
        },
        {
            "buffer" : 0,
            "byteLength" : 3384,
            "byteOffset" : 246112
        },
        {
            "buffer" : 0,
            "byteLength" : 2256,
            "byteOffset" : 249496
        },
        {
            "buffer" : 0,
            "byteLength" : 1668,
            "byteOffset" : 251752
        },
        {
            "buffer" : 0,
            "byteLength" : 4608,
            "byteOffset" : 253420
        },
        {
            "buffer" : 0,
            "byteLength" : 4608,
            "byteOffset" : 258028
        },
        {
            "buffer" : 0,
            "byteLength" : 3072,
            "byteOffset" : 262636
        }
    ],
    "buffers" : [
        {
            "byteLength" : 265708,
            "uri" : "data:application/octet-stream;base64,"
        }
    ]
}
