{
    "asset" : {
        "generator" : "Khronos glTF Blender I/O v1.6.16",
        "version" : "2.0"
    },
    "scene" : 0,
    "scenes" : [
        {
            "name" : "Scene",
            "nodes" : [
                0,
                1
            ]
        }
    ],
    "nodes" : [
        {
            "mesh" : 0,
            "name" : "Hemispheres",
            "translation" : [
                -0.0002826377749443054,
                1.299904465675354,
                0
            ]
        },
        {
            "mesh" : 1,
            "name" : "Plane",
            "rotation" : [
                0.7045533657073975,
                -0.06003820523619652,
                -0.06003820523619652,
                0.7045533061027527
            ],
            "translation" : [
                0.0437774732708931,
                1.2923405170440674,
                0
            ]
        }
    ],
    "meshes" : [
        {
            "name" : "Sphere.004",
            "primitives" : [
                {
                    "attributes" : {
                        "POSITION" : 0,
                        "NORMAL" : 1,
                        "TEXCOORD_0" : 2
                    },
                    "indices" : 3
                }
            ]
        },
        {
            "name" : "Plane",
            "primitives" : [
                {
                    "attributes" : {
                        "POSITION" : 4,
                        "NORMAL" : 5,
                        "TEXCOORD_0" : 6
                    },
                    "indices" : 7
                }
            ]
        }
    ],
    "accessors" : [
        {
            "bufferView" : 0,
            "componentType" : 5126,
            "count" : 2957,
            "max" : [
                1.2934049367904663,
                -0.3703612685203552,
                0.9958965182304382
            ],
            "min" : [
                -1.292839527130127,
                -2.3482234477996826,
                -0.9958965182304382
            ],
            "type" : "VEC3"
        },
        {
            "bufferView" : 1,
            "componentType" : 5126,
            "count" : 2957,
            "type" : "VEC3"
        },
        {
            "bufferView" : 2,
            "componentType" : 5126,
            "count" : 2957,
            "type" : "VEC2"
        },
        {
            "bufferView" : 3,
            "componentType" : 5123,
            "count" : 14040,
            "type" : "SCALAR"
        },
        {
            "bufferView" : 4,
            "componentType" : 5126,
            "count" : 4,
            "max" : [
                -0.13821175694465637,
                7.480373653834249e-08,
                3.398576259613037
            ],
            "min" : [
                -4.138211727142334,
                7.480373653834249e-08,
                -0.6014238595962524
            ],
            "type" : "VEC3"
        },
        {
            "bufferView" : 5,
            "componentType" : 5126,
            "count" : 4,
            "type" : "VEC3"
        },
        {
            "bufferView" : 6,
            "componentType" : 5126,
            "count" : 4,
            "type" : "VEC2"
        },
        {
            "bufferView" : 7,
            "componentType" : 5123,
            "count" : 6,
            "type" : "SCALAR"
        }
    ],
    "bufferViews" : [
        {
            "buffer" : 0,
            "byteLength" : 35484,
            "byteOffset" : 0
        },
        {
            "buffer" : 0,
            "byteLength" : 35484,
            "byteOffset" : 35484
        },
        {
            "buffer" : 0,
            "byteLength" : 23656,
            "byteOffset" : 70968
        },
        {
            "buffer" : 0,
            "byteLength" : 28080,
            "byteOffset" : 94624
        },
        {
            "buffer" : 0,
            "byteLength" : 48,
            "byteOffset" : 122704
        },
        {
            "buffer" : 0,
            "byteLength" : 48,
            "byteOffset" : 122752
        },
        {
            "buffer" : 0,
            "byteLength" : 32,
            "byteOffset" : 122800
        },
        {
            "buffer" : 0,
            "byteLength" : 12,
            "byteOffset" : 122832
        }
    ],
    "buffers" : [
        {
            "byteLength" : 122844,
            "uri" : "data:application/octet-stream;base64,"
        }
    ]
}
