{
    "asset" : {
        "generator" : "Khronos glTF Blender I/O v1.6.16",
        "version" : "2.0"
    },
    "scene" : 0,
    "scenes" : [
        {
            "name" : "Scene",
            "nodes" : [
                0,
                1,
                2,
                3,
                4,
                5,
                6
            ]
        }
    ],
    "nodes" : [
        {
            "mesh" : 0,
            "name" : "Hemisphere1",
            "rotation" : [
                0,
                0,
                0.02510884776711464,
                0.999684751033783
            ],
            "translation" : [
                0,
                5,
                0
            ]
        },
        {
            "mesh" : 1,
            "name" : "Ring1",
            "rotation" : [
                0,
                0,
                0.02510884776711464,
                0.999684751033783
            ],
            "translation" : [
                0,
                5,
                0
            ]
        },
        {
            "mesh" : 2,
            "name" : "Ring2",
            "rotation" : [
                0,
                0,
                0.02510884776711464,
                0.999684751033783
            ],
            "translation" : [
                0,
                5,
                0
            ]
        },
        {
            "mesh" : 3,
            "name" : "Plane.003",
            "rotation" : [
                0.7071068286895752,
                0,
                0,
                0.7071068286895752
            ],
            "translation" : [
                0,
                5,
                0
            ]
        },
        {
            "mesh" : 4,
            "name" : "Hemisphere2",
            "rotation" : [
                0,
                0,
                0.034998808056116104,
                0.9993873834609985
            ],
            "translation" : [
                0,
                5,
                0
            ]
        },
        {
            "mesh" : 5,
            "name" : "Ring3",
            "rotation" : [
                0,
                0,
                0.034998808056116104,
                0.9993873834609985
            ],
            "translation" : [
                0,
                5,
                0
            ]
        },
        {
            "mesh" : 6,
            "name" : "Ring4",
            "rotation" : [
                0,
                0,
                0.034998808056116104,
                0.9993873834609985
            ],
            "translation" : [
                0,
                5,
                0
            ]
        }
    ],
    "materials" : [
        {
            "doubleSided" : true,
            "name" : "BackgroundMaterial",
            "pbrMetallicRoughness" : {
                "baseColorFactor" : [
                    0.014443843625485897,
                    0.012983030639588833,
                    0.022173883393406868,
                    1
                ],
                "metallicFactor" : 0,
                "roughnessFactor" : 0.800000011920929
            }
        }
    ],
    "meshes" : [
        {
            "name" : "Sphere.003",
            "primitives" : [
                {
                    "attributes" : {
                        "POSITION" : 0,
                        "NORMAL" : 1,
                        "TEXCOORD_0" : 2
                    },
                    "indices" : 3
                }
            ]
        },
        {
            "name" : "BezierCurve.002",
            "primitives" : [
                {
                    "attributes" : {
                        "POSITION" : 4,
                        "NORMAL" : 5,
                        "TEXCOORD_0" : 6
                    },
                    "indices" : 7
                }
            ]
        },
        {
            "name" : "BezierCurve.003",
            "primitives" : [
                {
                    "attributes" : {
                        "POSITION" : 8,
                        "NORMAL" : 9,
                        "TEXCOORD_0" : 10
                    },
                    "indices" : 11
                }
            ]
        },
        {
            "name" : "Plane.003",
            "primitives" : [
                {
                    "attributes" : {
                        "POSITION" : 12,
                        "NORMAL" : 13,
                        "TEXCOORD_0" : 14
                    },
                    "indices" : 15,
                    "material" : 0
                }
            ]
        },
        {
            "name" : "Sphere.005",
            "primitives" : [
                {
                    "attributes" : {
                        "POSITION" : 16,
                        "NORMAL" : 17,
                        "TEXCOORD_0" : 18
                    },
                    "indices" : 3
                }
            ]
        },
        {
            "name" : "BezierCurve.006",
            "primitives" : [
                {
                    "attributes" : {
                        "POSITION" : 19,
                        "NORMAL" : 20,
                        "TEXCOORD_0" : 21
                    },
                    "indices" : 22
                }
            ]
        },
        {
            "name" : "BezierCurve.007",
            "primitives" : [
                {
                    "attributes" : {
                        "POSITION" : 23,
                        "NORMAL" : 24,
                        "TEXCOORD_0" : 25
                    },
                    "indices" : 11
                }
            ]
        }
    ],
    "accessors" : [
        {
            "bufferView" : 0,
            "componentType" : 5126,
            "count" : 353,
            "max" : [
                -0.29419124126434326,
                -5.22343635559082,
                1.0000003576278687
            ],
            "min" : [
                -1.4262350797653198,
                -7.128169536590576,
                -1.0000001192092896
            ],
            "type" : "VEC3"
        },
        {
            "bufferView" : 1,
            "componentType" : 5126,
            "count" : 353,
            "type" : "VEC3"
        },
        {
            "bufferView" : 2,
            "componentType" : 5126,
            "count" : 353,
            "type" : "VEC2"
        },
        {
            "bufferView" : 3,
            "componentType" : 5123,
            "count" : 1710,
            "type" : "SCALAR"
        },
        {
            "bufferView" : 4,
            "componentType" : 5126,
            "count" : 141,
            "max" : [
                -0.2970484495162964,
                -5.110255241394043,
                -5.6518885685363784e-05
            ],
            "min" : [
                -1.6852678060531616,
                -7.195723533630371,
                -5.688471719622612e-05
            ],
            "type" : "VEC3"
        },
        {
            "bufferView" : 5,
            "componentType" : 5126,
            "count" : 141,
            "type" : "VEC3"
        },
        {
            "bufferView" : 6,
            "componentType" : 5126,
            "count" : 141,
            "type" : "VEC2"
        },
        {
            "bufferView" : 7,
            "componentType" : 5123,
            "count" : 417,
            "type" : "SCALAR"
        },
        {
            "bufferView" : 8,
            "componentType" : 5126,
            "count" : 192,
            "max" : [
                -0.2974323630332947,
                -5.012965202331543,
                -0.005637005437165499
            ],
            "min" : [
                -2.008960723876953,
                -7.322756767272949,
                -0.0056371064856648445
            ],
            "type" : "VEC3"
        },
        {
            "bufferView" : 9,
            "componentType" : 5126,
            "count" : 192,
            "type" : "VEC3"
        },
        {
            "bufferView" : 10,
            "componentType" : 5126,
            "count" : 192,
            "type" : "VEC2"
        },
        {
            "bufferView" : 11,
            "componentType" : 5123,
            "count" : 570,
            "type" : "SCALAR"
        },
        {
            "bufferView" : 12,
            "componentType" : 5126,
            "count" : 4,
            "max" : [
                10,
                -1.999999761581421,
                15
            ],
            "min" : [
                -10,
                -1.999999761581421,
                -5
            ],
            "type" : "VEC3"
        },
        {
            "bufferView" : 13,
            "componentType" : 5126,
            "count" : 4,
            "type" : "VEC3"
        },
        {
            "bufferView" : 14,
            "componentType" : 5126,
            "count" : 4,
            "type" : "VEC2"
        },
        {
            "bufferView" : 15,
            "componentType" : 5123,
            "count" : 6,
            "type" : "SCALAR"
        },
        {
            "bufferView" : 16,
            "componentType" : 5126,
            "count" : 353,
            "max" : [
                -0.23145391047000885,
                -3.026630401611328,
                0.8443120718002319
            ],
            "min" : [
                -1.1727491617202759,
                -4.6353254318237305,
                -0.8443118929862976
            ],
            "type" : "VEC3"
        },
        {
            "bufferView" : 17,
            "componentType" : 5126,
            "count" : 353,
            "type" : "VEC3"
        },
        {
            "bufferView" : 18,
            "componentType" : 5126,
            "count" : 353,
            "type" : "VEC2"
        },
        {
            "bufferView" : 19,
            "componentType" : 5126,
            "count" : 141,
            "max" : [
                -0.23381869494915009,
                -2.934643268585205,
                -4.771869498654269e-05
            ],
            "min" : [
                -1.3929591178894043,
                -4.696624755859375,
                -4.802793773706071e-05
            ],
            "type" : "VEC3"
        },
        {
            "bufferView" : 20,
            "componentType" : 5126,
            "count" : 141,
            "type" : "VEC3"
        },
        {
            "bufferView" : 21,
            "componentType" : 5126,
            "count" : 141,
            "type" : "VEC2"
        },
        {
            "bufferView" : 22,
            "componentType" : 5123,
            "count" : 417,
            "type" : "SCALAR"
        },
        {
            "bufferView" : 23,
            "componentType" : 5126,
            "count" : 192,
            "max" : [
                -0.23415066301822662,
                -2.8559303283691406,
                -0.004759389907121658
            ],
            "min" : [
                -1.666259527206421,
                -4.805881977081299,
                -0.004759475123137236
            ],
            "type" : "VEC3"
        },
        {
            "bufferView" : 24,
            "componentType" : 5126,
            "count" : 192,
            "type" : "VEC3"
        },
        {
            "bufferView" : 25,
            "componentType" : 5126,
            "count" : 192,
            "type" : "VEC2"
        }
    ],
    "bufferViews" : [
        {
            "buffer" : 0,
            "byteLength" : 4236,
            "byteOffset" : 0
        },
        {
            "buffer" : 0,
            "byteLength" : 4236,
            "byteOffset" : 4236
        },
        {
            "buffer" : 0,
            "byteLength" : 2824,
            "byteOffset" : 8472
        },
        {
            "buffer" : 0,
            "byteLength" : 3420,
            "byteOffset" : 11296
        },
        {
            "buffer" : 0,
            "byteLength" : 1692,
            "byteOffset" : 14716
        },
        {
            "buffer" : 0,
            "byteLength" : 1692,
            "byteOffset" : 16408
        },
        {
            "buffer" : 0,
            "byteLength" : 1128,
            "byteOffset" : 18100
        },
        {
            "buffer" : 0,
            "byteLength" : 834,
            "byteOffset" : 19228
        },
        {
            "buffer" : 0,
            "byteLength" : 2304,
            "byteOffset" : 20064
        },
        {
            "buffer" : 0,
            "byteLength" : 2304,
            "byteOffset" : 22368
        },
        {
            "buffer" : 0,
            "byteLength" : 1536,
            "byteOffset" : 24672
        },
        {
            "buffer" : 0,
            "byteLength" : 1140,
            "byteOffset" : 26208
        },
        {
            "buffer" : 0,
            "byteLength" : 48,
            "byteOffset" : 27348
        },
        {
            "buffer" : 0,
            "byteLength" : 48,
            "byteOffset" : 27396
        },
        {
            "buffer" : 0,
            "byteLength" : 32,
            "byteOffset" : 27444
        },
        {
            "buffer" : 0,
            "byteLength" : 12,
            "byteOffset" : 27476
        },
        {
            "buffer" : 0,
            "byteLength" : 4236,
            "byteOffset" : 27488
        },
        {
            "buffer" : 0,
            "byteLength" : 4236,
            "byteOffset" : 31724
        },
        {
            "buffer" : 0,
            "byteLength" : 2824,
            "byteOffset" : 35960
        },
        {
            "buffer" : 0,
            "byteLength" : 1692,
            "byteOffset" : 38784
        },
        {
            "buffer" : 0,
            "byteLength" : 1692,
            "byteOffset" : 40476
        },
        {
            "buffer" : 0,
            "byteLength" : 1128,
            "byteOffset" : 42168
        },
        {
            "buffer" : 0,
            "byteLength" : 834,
            "byteOffset" : 43296
        },
        {
            "buffer" : 0,
            "byteLength" : 2304,
            "byteOffset" : 44132
        },
        {
            "buffer" : 0,
            "byteLength" : 2304,
            "byteOffset" : 46436
        },
        {
            "buffer" : 0,
            "byteLength" : 1536,
            "byteOffset" : 48740
        }
    ],
    "buffers" : [
        {
            "byteLength" : 50276,
            "uri" : "data:application/octet-stream;base64,"
        }
    ]
}
