{
    "asset" : {
        "generator" : "Khronos glTF Blender I/O v1.6.16",
        "version" : "2.0"
    },
    "scene" : 0,
    "scenes" : [
        {
            "name" : "Scene",
            "nodes" : [
                0,
                1,
                2,
                3,
                4,
                5
            ]
        }
    ],
    "nodes" : [
        {
            "mesh" : 0,
            "name" : "Hemisphere1",
            "translation" : [
                0,
                5,
                0
            ]
        },
        {
            "mesh" : 1,
            "name" : "RingInner",
            "translation" : [
                0,
                5,
                0
            ]
        },
        {
            "mesh" : 2,
            "name" : "Plane.002",
            "translation" : [
                0,
                5,
                0
            ]
        },
        {
            "mesh" : 3,
            "name" : "Hemisphere2",
            "translation" : [
                0,
                5,
                0
            ]
        },
        {
            "mesh" : 4,
            "name" : "RingOuter",
            "translation" : [
                0,
                5,
                0
            ]
        },
        {
            "mesh" : 5,
            "name" : "Beam",
            "translation" : [
                0,
                -0.03539228439331055,
                -1.8520150184631348
            ]
        }
    ],
    "materials" : [
        {
            "doubleSided" : true,
            "name" : "BackgroundMaterial",
            "pbrMetallicRoughness" : {
                "baseColorFactor" : [
                    0.014443843625485897,
                    0.012983030639588833,
                    0.022173883393406868,
                    1
                ],
                "metallicFactor" : 0,
                "roughnessFactor" : 0.800000011920929
            }
        }
    ],
    "meshes" : [
        {
            "name" : "Sphere.006",
            "primitives" : [
                {
                    "attributes" : {
                        "POSITION" : 0,
                        "NORMAL" : 1,
                        "TEXCOORD_0" : 2
                    },
                    "indices" : 3
                }
            ]
        },
        {
            "name" : "BezierCurve.008",
            "primitives" : [
                {
                    "attributes" : {
                        "POSITION" : 4,
                        "NORMAL" : 5,
                        "TEXCOORD_0" : 6
                    },
                    "indices" : 7
                }
            ]
        },
        {
            "name" : "Plane.002",
            "primitives" : [
                {
                    "attributes" : {
                        "POSITION" : 8,
                        "NORMAL" : 9,
                        "TEXCOORD_0" : 10
                    },
                    "indices" : 11,
                    "material" : 0
                }
            ]
        },
        {
            "name" : "Sphere.007",
            "primitives" : [
                {
                    "attributes" : {
                        "POSITION" : 12,
                        "NORMAL" : 13,
                        "TEXCOORD_0" : 14
                    },
                    "indices" : 3
                }
            ]
        },
        {
            "name" : "BezierCurve.012",
            "primitives" : [
                {
                    "attributes" : {
                        "POSITION" : 15,
                        "NORMAL" : 16,
                        "TEXCOORD_0" : 17
                    },
                    "indices" : 18
                }
            ]
        },
        {
            "name" : "Plane.004",
            "primitives" : [
                {
                    "attributes" : {
                        "POSITION" : 19,
                        "NORMAL" : 20,
                        "TEXCOORD_0" : 21
                    },
                    "indices" : 11
                }
            ]
        }
    ],
    "accessors" : [
        {
            "bufferView" : 0,
            "componentType" : 5126,
            "count" : 353,
            "max" : [
                -0.03142032027244568,
                -5.2350754737854,
                1.0000003576278687
            ],
            "min" : [
                -1.115132451057434,
                -7.14462423324585,
                -1.0000001192092896
            ],
            "type" : "VEC3"
        },
        {
            "bufferView" : 1,
            "componentType" : 5126,
            "count" : 353,
            "type" : "VEC3"
        },
        {
            "bufferView" : 2,
            "componentType" : 5126,
            "count" : 353,
            "type" : "VEC2"
        },
        {
            "bufferView" : 3,
            "componentType" : 5123,
            "count" : 1710,
            "type" : "SCALAR"
        },
        {
            "bufferView" : 4,
            "componentType" : 5126,
            "count" : 282,
            "max" : [
                -0.021277934312820435,
                -2.967050313949585,
                -4.772288230014965e-05
            ],
            "min" : [
                -1.3757505416870117,
                -7.227818489074707,
                -5.688882083632052e-05
            ],
            "type" : "VEC3"
        },
        {
            "bufferView" : 5,
            "componentType" : 5126,
            "count" : 282,
            "type" : "VEC3"
        },
        {
            "bufferView" : 6,
            "componentType" : 5126,
            "count" : 282,
            "type" : "VEC2"
        },
        {
            "bufferView" : 7,
            "componentType" : 5123,
            "count" : 834,
            "type" : "SCALAR"
        },
        {
            "bufferView" : 8,
            "componentType" : 5126,
            "count" : 4,
            "max" : [
                10,
                5,
                -1.9999995231628418
            ],
            "min" : [
                -10,
                -15,
                -2.000000476837158
            ],
            "type" : "VEC3"
        },
        {
            "bufferView" : 9,
            "componentType" : 5126,
            "count" : 4,
            "type" : "VEC3"
        },
        {
            "bufferView" : 10,
            "componentType" : 5126,
            "count" : 4,
            "type" : "VEC2"
        },
        {
            "bufferView" : 11,
            "componentType" : 5123,
            "count" : 6,
            "type" : "SCALAR"
        },
        {
            "bufferView" : 12,
            "componentType" : 5126,
            "count" : 353,
            "max" : [
                -0.01911674439907074,
                -3.036020517349243,
                0.8443120718002319
            ],
            "min" : [
                -0.9052894115447998,
                -4.650813579559326,
                -0.8443118929862976
            ],
            "type" : "VEC3"
        },
        {
            "bufferView" : 13,
            "componentType" : 5126,
            "count" : 353,
            "type" : "VEC3"
        },
        {
            "bufferView" : 14,
            "componentType" : 5126,
            "count" : 353,
            "type" : "VEC2"
        },
        {
            "bufferView" : 15,
            "componentType" : 5126,
            "count" : 384,
            "max" : [
                -0.02164115011692047,
                -2.9012815952301025,
                -0.004759395029395819
            ],
            "min" : [
                -1.7006343603134155,
                -7.3616557121276855,
                -0.0056371125392615795
            ],
            "type" : "VEC3"
        },
        {
            "bufferView" : 16,
            "componentType" : 5126,
            "count" : 384,
            "type" : "VEC3"
        },
        {
            "bufferView" : 17,
            "componentType" : 5126,
            "count" : 384,
            "type" : "VEC2"
        },
        {
            "bufferView" : 18,
            "componentType" : 5123,
            "count" : 1140,
            "type" : "SCALAR"
        },
        {
            "bufferView" : 19,
            "componentType" : 5126,
            "count" : 4,
            "max" : [
                0.10589855909347534,
                5.030078411102295,
                1.070910897738031e-07
            ],
            "min" : [
                -0.10589855909347534,
                -2.449958562850952,
                -1.070910897738031e-07
            ],
            "type" : "VEC3"
        },
        {
            "bufferView" : 20,
            "componentType" : 5126,
            "count" : 4,
            "type" : "VEC3"
        },
        {
            "bufferView" : 21,
            "componentType" : 5126,
            "count" : 4,
            "type" : "VEC2"
        }
    ],
    "bufferViews" : [
        {
            "buffer" : 0,
            "byteLength" : 4236,
            "byteOffset" : 0
        },
        {
            "buffer" : 0,
            "byteLength" : 4236,
            "byteOffset" : 4236
        },
        {
            "buffer" : 0,
            "byteLength" : 2824,
            "byteOffset" : 8472
        },
        {
            "buffer" : 0,
            "byteLength" : 3420,
            "byteOffset" : 11296
        },
        {
            "buffer" : 0,
            "byteLength" : 3384,
            "byteOffset" : 14716
        },
        {
            "buffer" : 0,
            "byteLength" : 3384,
            "byteOffset" : 18100
        },
        {
            "buffer" : 0,
            "byteLength" : 2256,
            "byteOffset" : 21484
        },
        {
            "buffer" : 0,
            "byteLength" : 1668,
            "byteOffset" : 23740
        },
        {
            "buffer" : 0,
            "byteLength" : 48,
            "byteOffset" : 25408
        },
        {
            "buffer" : 0,
            "byteLength" : 48,
            "byteOffset" : 25456
        },
        {
            "buffer" : 0,
            "byteLength" : 32,
            "byteOffset" : 25504
        },
        {
            "buffer" : 0,
            "byteLength" : 12,
            "byteOffset" : 25536
        },
        {
            "buffer" : 0,
            "byteLength" : 4236,
            "byteOffset" : 25548
        },
        {
            "buffer" : 0,
            "byteLength" : 4236,
            "byteOffset" : 29784
        },
        {
            "buffer" : 0,
            "byteLength" : 2824,
            "byteOffset" : 34020
        },
        {
            "buffer" : 0,
            "byteLength" : 4608,
            "byteOffset" : 36844
        },
        {
            "buffer" : 0,
            "byteLength" : 4608,
            "byteOffset" : 41452
        },
        {
            "buffer" : 0,
            "byteLength" : 3072,
            "byteOffset" : 46060
        },
        {
            "buffer" : 0,
            "byteLength" : 2280,
            "byteOffset" : 49132
        },
        {
            "buffer" : 0,
            "byteLength" : 48,
            "byteOffset" : 51412
        },
        {
            "buffer" : 0,
            "byteLength" : 48,
            "byteOffset" : 51460
        },
        {
            "buffer" : 0,
            "byteLength" : 32,
            "byteOffset" : 51508
        }
    ],
    "buffers" : [
        {
            "byteLength" : 51540,
            "uri" : "data:application/octet-stream;base64,"
        }
    ]
}
